<mxfile host="app.diagrams.net" agent="Mozilla/5.0 (X11; Linux x86_64; rv:128.0) Gecko/20100101 Firefox/128.0" version="28.0.7">
  <diagram name="Seite-1" id="eh6Qqc6KGT0FszyG78Vi">
    <mxGraphModel dx="1391" dy="1435" grid="1" gridSize="10" guides="1" tooltips="1" connect="1" arrows="1" fold="1" page="1" pageScale="1" pageWidth="827" pageHeight="1169" math="0" shadow="0">
      <root>
        <mxCell id="0" />
        <mxCell id="1" parent="0" />
        <mxCell id="N5b4VE_54doguNeQN6cZ-9" style="edgeStyle=orthogonalEdgeStyle;rounded=0;orthogonalLoop=1;jettySize=auto;html=1;exitX=0.75;exitY=1;exitDx=0;exitDy=0;entryX=1;entryY=0;entryDx=0;entryDy=0;" edge="1" parent="1" source="CbGXBsFZmbm_EGALDHrA-1" target="N5b4VE_54doguNeQN6cZ-5">
          <mxGeometry relative="1" as="geometry" />
        </mxCell>
        <mxCell id="N5b4VE_54doguNeQN6cZ-40" style="edgeStyle=orthogonalEdgeStyle;rounded=0;orthogonalLoop=1;jettySize=auto;html=1;entryX=0;entryY=0.5;entryDx=0;entryDy=0;startArrow=classic;startFill=1;" edge="1" parent="1" source="N5b4VE_54doguNeQN6cZ-36" target="N5b4VE_54doguNeQN6cZ-35">
          <mxGeometry relative="1" as="geometry" />
        </mxCell>
        <mxCell id="N5b4VE_54doguNeQN6cZ-41" style="edgeStyle=orthogonalEdgeStyle;rounded=0;orthogonalLoop=1;jettySize=auto;html=1;exitX=0;exitY=0.5;exitDx=0;exitDy=0;entryX=1;entryY=0.5;entryDx=0;entryDy=0;startArrow=classic;startFill=1;" edge="1" parent="1" source="CbGXBsFZmbm_EGALDHrA-3" target="N5b4VE_54doguNeQN6cZ-35">
          <mxGeometry relative="1" as="geometry">
            <Array as="points">
              <mxPoint x="570" y="620" />
              <mxPoint x="570" y="705" />
            </Array>
          </mxGeometry>
        </mxCell>
        <mxCell id="N5b4VE_54doguNeQN6cZ-59" style="edgeStyle=orthogonalEdgeStyle;rounded=0;orthogonalLoop=1;jettySize=auto;html=1;exitX=0.5;exitY=1;exitDx=0;exitDy=0;entryX=0.5;entryY=0;entryDx=0;entryDy=0;" edge="1" parent="1" source="CbGXBsFZmbm_EGALDHrA-3" target="N5b4VE_54doguNeQN6cZ-51">
          <mxGeometry relative="1" as="geometry" />
        </mxCell>
        <mxCell id="CbGXBsFZmbm_EGALDHrA-3" value="Formula" style="rounded=1;whiteSpace=wrap;html=1;fillColor=#d5e8d4;strokeColor=#82b366;" parent="1" vertex="1">
          <mxGeometry x="640" y="590" width="120" height="60" as="geometry" />
        </mxCell>
        <mxCell id="N5b4VE_54doguNeQN6cZ-38" style="edgeStyle=orthogonalEdgeStyle;rounded=0;orthogonalLoop=1;jettySize=auto;html=1;exitX=0;exitY=0.5;exitDx=0;exitDy=0;entryX=0;entryY=0.5;entryDx=0;entryDy=0;" edge="1" parent="1" source="N5b4VE_54doguNeQN6cZ-1" target="N5b4VE_54doguNeQN6cZ-36">
          <mxGeometry relative="1" as="geometry" />
        </mxCell>
        <mxCell id="N5b4VE_54doguNeQN6cZ-1" value="Verb" style="rounded=1;whiteSpace=wrap;html=1;fillColor=#dae8fc;gradientColor=#7ea6e0;strokeColor=#6c8ebf;" vertex="1" parent="1">
          <mxGeometry x="50" y="660" width="70" height="40" as="geometry" />
        </mxCell>
        <mxCell id="N5b4VE_54doguNeQN6cZ-7" style="edgeStyle=orthogonalEdgeStyle;rounded=0;orthogonalLoop=1;jettySize=auto;html=1;exitX=0.5;exitY=1;exitDx=0;exitDy=0;entryX=0;entryY=0;entryDx=0;entryDy=0;" edge="1" parent="1" target="N5b4VE_54doguNeQN6cZ-5">
          <mxGeometry relative="1" as="geometry">
            <mxPoint x="105" y="770" as="sourcePoint" />
          </mxGeometry>
        </mxCell>
        <mxCell id="N5b4VE_54doguNeQN6cZ-3" value="" style="endArrow=classic;html=1;rounded=0;exitX=0.5;exitY=1;exitDx=0;exitDy=0;entryX=0.257;entryY=0.075;entryDx=0;entryDy=0;entryPerimeter=0;" edge="1" parent="1" source="N5b4VE_54doguNeQN6cZ-1" target="N5b4VE_54doguNeQN6cZ-34">
          <mxGeometry width="50" height="50" relative="1" as="geometry">
            <mxPoint x="390" y="1330" as="sourcePoint" />
            <mxPoint x="87.5" y="730" as="targetPoint" />
          </mxGeometry>
        </mxCell>
        <mxCell id="N5b4VE_54doguNeQN6cZ-4" value="" style="endArrow=classic;html=1;rounded=0;exitX=0.5;exitY=1;exitDx=0;exitDy=0;entryX=0.743;entryY=0.125;entryDx=0;entryDy=0;entryPerimeter=0;" edge="1" parent="1" source="CbGXBsFZmbm_EGALDHrA-1" target="N5b4VE_54doguNeQN6cZ-34">
          <mxGeometry width="50" height="50" relative="1" as="geometry">
            <mxPoint x="290" y="760" as="sourcePoint" />
            <mxPoint x="122.5" y="730" as="targetPoint" />
          </mxGeometry>
        </mxCell>
        <mxCell id="N5b4VE_54doguNeQN6cZ-37" style="edgeStyle=orthogonalEdgeStyle;rounded=0;orthogonalLoop=1;jettySize=auto;html=1;exitX=0.5;exitY=1;exitDx=0;exitDy=0;entryX=0.5;entryY=0;entryDx=0;entryDy=0;" edge="1" parent="1" source="N5b4VE_54doguNeQN6cZ-5" target="N5b4VE_54doguNeQN6cZ-36">
          <mxGeometry relative="1" as="geometry" />
        </mxCell>
        <mxCell id="N5b4VE_54doguNeQN6cZ-5" value="phrase" style="rhombus;whiteSpace=wrap;html=1;" vertex="1" parent="1">
          <mxGeometry x="80" y="790" width="120" height="60" as="geometry" />
        </mxCell>
        <mxCell id="N5b4VE_54doguNeQN6cZ-57" style="edgeStyle=orthogonalEdgeStyle;rounded=0;orthogonalLoop=1;jettySize=auto;html=1;exitX=0;exitY=0.5;exitDx=0;exitDy=0;entryX=0.75;entryY=0;entryDx=0;entryDy=0;" edge="1" parent="1" source="N5b4VE_54doguNeQN6cZ-11" target="CbGXBsFZmbm_EGALDHrA-2">
          <mxGeometry relative="1" as="geometry" />
        </mxCell>
        <mxCell id="N5b4VE_54doguNeQN6cZ-11" value="Source" style="rounded=1;whiteSpace=wrap;html=1;fillColor=#dae8fc;gradientColor=#7ea6e0;strokeColor=#6c8ebf;" vertex="1" parent="1">
          <mxGeometry x="510" y="490" width="70" height="40" as="geometry" />
        </mxCell>
        <mxCell id="N5b4VE_54doguNeQN6cZ-12" value="View" style="rounded=1;whiteSpace=wrap;html=1;fillColor=#dae8fc;gradientColor=#7ea6e0;strokeColor=#6c8ebf;" vertex="1" parent="1">
          <mxGeometry x="80" y="1100" width="680" height="30" as="geometry" />
        </mxCell>
        <mxCell id="N5b4VE_54doguNeQN6cZ-50" style="edgeStyle=orthogonalEdgeStyle;rounded=0;orthogonalLoop=1;jettySize=auto;html=1;exitX=0.5;exitY=1;exitDx=0;exitDy=0;entryX=0.5;entryY=0;entryDx=0;entryDy=0;" edge="1" parent="1" source="N5b4VE_54doguNeQN6cZ-13" target="N5b4VE_54doguNeQN6cZ-60">
          <mxGeometry relative="1" as="geometry" />
        </mxCell>
        <mxCell id="N5b4VE_54doguNeQN6cZ-13" value="Component" style="rounded=1;whiteSpace=wrap;html=1;fillColor=#dae8fc;gradientColor=#7ea6e0;strokeColor=#6c8ebf;" vertex="1" parent="1">
          <mxGeometry x="510" y="930" width="100" height="50" as="geometry" />
        </mxCell>
        <mxCell id="N5b4VE_54doguNeQN6cZ-18" style="edgeStyle=orthogonalEdgeStyle;rounded=0;orthogonalLoop=1;jettySize=auto;html=1;exitX=0.5;exitY=1;exitDx=0;exitDy=0;entryX=0.5;entryY=0;entryDx=0;entryDy=0;fillColor=#f5f5f5;gradientColor=#b3b3b3;strokeColor=#666666;dashed=1;" edge="1" parent="1">
          <mxGeometry relative="1" as="geometry">
            <mxPoint x="175" y="320" as="sourcePoint" />
            <mxPoint x="175" y="340" as="targetPoint" />
          </mxGeometry>
        </mxCell>
        <mxCell id="N5b4VE_54doguNeQN6cZ-29" style="edgeStyle=orthogonalEdgeStyle;rounded=0;orthogonalLoop=1;jettySize=auto;html=1;exitX=0;exitY=0.5;exitDx=0;exitDy=0;dashed=1;fillColor=#f5f5f5;gradientColor=#b3b3b3;strokeColor=#666666;" edge="1" parent="1" source="N5b4VE_54doguNeQN6cZ-14" target="N5b4VE_54doguNeQN6cZ-27">
          <mxGeometry relative="1" as="geometry" />
        </mxCell>
        <mxCell id="N5b4VE_54doguNeQN6cZ-43" style="edgeStyle=orthogonalEdgeStyle;rounded=0;orthogonalLoop=1;jettySize=auto;html=1;exitX=1;exitY=0.5;exitDx=0;exitDy=0;fillColor=#f5f5f5;gradientColor=#b3b3b3;strokeColor=#666666;dashed=1;" edge="1" parent="1" source="N5b4VE_54doguNeQN6cZ-14" target="N5b4VE_54doguNeQN6cZ-28">
          <mxGeometry relative="1" as="geometry" />
        </mxCell>
        <mxCell id="N5b4VE_54doguNeQN6cZ-62" style="edgeStyle=orthogonalEdgeStyle;rounded=0;orthogonalLoop=1;jettySize=auto;html=1;exitX=0.5;exitY=1;exitDx=0;exitDy=0;entryX=0.5;entryY=0;entryDx=0;entryDy=0;dashed=1;fillColor=#f5f5f5;gradientColor=#b3b3b3;strokeColor=#666666;" edge="1" parent="1" source="N5b4VE_54doguNeQN6cZ-14" target="N5b4VE_54doguNeQN6cZ-15">
          <mxGeometry relative="1" as="geometry" />
        </mxCell>
        <mxCell id="N5b4VE_54doguNeQN6cZ-14" value="Sandbox" style="rounded=1;whiteSpace=wrap;html=1;fillColor=#f5f5f5;fontColor=#333333;strokeColor=#666666;" vertex="1" parent="1">
          <mxGeometry x="140" y="220" width="70" height="40" as="geometry" />
        </mxCell>
        <mxCell id="N5b4VE_54doguNeQN6cZ-19" style="edgeStyle=orthogonalEdgeStyle;rounded=0;orthogonalLoop=1;jettySize=auto;html=1;exitX=0.5;exitY=1;exitDx=0;exitDy=0;entryX=0.5;entryY=0;entryDx=0;entryDy=0;fillColor=#f5f5f5;gradientColor=#b3b3b3;strokeColor=#666666;dashed=1;" edge="1" parent="1">
          <mxGeometry relative="1" as="geometry">
            <mxPoint x="175" y="380" as="sourcePoint" />
            <mxPoint x="175" y="400" as="targetPoint" />
          </mxGeometry>
        </mxCell>
        <mxCell id="N5b4VE_54doguNeQN6cZ-15" value="&lt;div&gt;Sandbox&lt;/div&gt;&lt;div&gt;Named&lt;/div&gt;" style="rounded=1;whiteSpace=wrap;html=1;fillColor=#f5f5f5;fontColor=#333333;strokeColor=#666666;" vertex="1" parent="1">
          <mxGeometry x="140" y="280" width="70" height="40" as="geometry" />
        </mxCell>
        <mxCell id="N5b4VE_54doguNeQN6cZ-20" style="edgeStyle=orthogonalEdgeStyle;rounded=0;orthogonalLoop=1;jettySize=auto;html=1;exitX=0.5;exitY=1;exitDx=0;exitDy=0;entryX=0.5;entryY=0;entryDx=0;entryDy=0;fillColor=#f5f5f5;gradientColor=#b3b3b3;strokeColor=#666666;dashed=1;" edge="1" parent="1">
          <mxGeometry relative="1" as="geometry">
            <mxPoint x="175" y="440" as="sourcePoint" />
            <mxPoint x="175" y="460" as="targetPoint" />
          </mxGeometry>
        </mxCell>
        <mxCell id="N5b4VE_54doguNeQN6cZ-44" style="edgeStyle=orthogonalEdgeStyle;rounded=0;orthogonalLoop=1;jettySize=auto;html=1;exitX=0.5;exitY=1;exitDx=0;exitDy=0;entryX=0.683;entryY=0.05;entryDx=0;entryDy=0;fillColor=#f5f5f5;gradientColor=#b3b3b3;strokeColor=#666666;dashed=1;entryPerimeter=0;" edge="1" parent="1" target="CbGXBsFZmbm_EGALDHrA-1">
          <mxGeometry relative="1" as="geometry">
            <mxPoint x="175" y="500" as="sourcePoint" />
            <Array as="points">
              <mxPoint x="176" y="500" />
              <mxPoint x="176" y="550" />
              <mxPoint x="162" y="550" />
            </Array>
          </mxGeometry>
        </mxCell>
        <mxCell id="N5b4VE_54doguNeQN6cZ-46" style="edgeStyle=orthogonalEdgeStyle;rounded=0;orthogonalLoop=1;jettySize=auto;html=1;exitX=0.5;exitY=1;exitDx=0;exitDy=0;fillColor=#f5f5f5;gradientColor=#b3b3b3;strokeColor=#666666;dashed=1;" edge="1" parent="1" target="CbGXBsFZmbm_EGALDHrA-3">
          <mxGeometry relative="1" as="geometry">
            <mxPoint x="175" y="500" as="sourcePoint" />
            <Array as="points">
              <mxPoint x="175" y="550" />
              <mxPoint x="700" y="550" />
            </Array>
          </mxGeometry>
        </mxCell>
        <mxCell id="N5b4VE_54doguNeQN6cZ-47" style="edgeStyle=orthogonalEdgeStyle;rounded=0;orthogonalLoop=1;jettySize=auto;html=1;exitX=0.5;exitY=1;exitDx=0;exitDy=0;fillColor=#f5f5f5;gradientColor=#b3b3b3;strokeColor=#666666;dashed=1;" edge="1" parent="1" source="N5b4VE_54doguNeQN6cZ-17" target="N5b4VE_54doguNeQN6cZ-12">
          <mxGeometry relative="1" as="geometry">
            <Array as="points">
              <mxPoint x="175" y="770" />
              <mxPoint x="415" y="770" />
            </Array>
          </mxGeometry>
        </mxCell>
        <mxCell id="N5b4VE_54doguNeQN6cZ-49" style="edgeStyle=orthogonalEdgeStyle;rounded=0;orthogonalLoop=1;jettySize=auto;html=1;exitX=0.5;exitY=1;exitDx=0;exitDy=0;fillColor=#f5f5f5;gradientColor=#b3b3b3;strokeColor=#666666;dashed=1;" edge="1" parent="1" source="N5b4VE_54doguNeQN6cZ-17" target="N5b4VE_54doguNeQN6cZ-13">
          <mxGeometry relative="1" as="geometry">
            <Array as="points">
              <mxPoint x="175" y="770" />
              <mxPoint x="560" y="770" />
            </Array>
          </mxGeometry>
        </mxCell>
        <mxCell id="N5b4VE_54doguNeQN6cZ-17" value="&lt;div&gt;Sandbox&lt;/div&gt;&lt;div&gt;Code ID&lt;br&gt;&lt;/div&gt;" style="rounded=1;whiteSpace=wrap;html=1;fillColor=#f5f5f5;fontColor=#333333;strokeColor=#666666;" vertex="1" parent="1">
          <mxGeometry x="140" y="400" width="70" height="40" as="geometry" />
        </mxCell>
        <mxCell id="N5b4VE_54doguNeQN6cZ-26" style="edgeStyle=orthogonalEdgeStyle;rounded=0;orthogonalLoop=1;jettySize=auto;html=1;exitX=0.5;exitY=1;exitDx=0;exitDy=0;fillColor=#f5f5f5;gradientColor=#b3b3b3;strokeColor=#666666;dashed=1;" edge="1" parent="1" source="N5b4VE_54doguNeQN6cZ-21" target="N5b4VE_54doguNeQN6cZ-14">
          <mxGeometry relative="1" as="geometry" />
        </mxCell>
        <mxCell id="N5b4VE_54doguNeQN6cZ-21" value="&lt;div&gt;DB seq id&lt;/div&gt;&lt;div&gt;User&lt;br&gt;&lt;/div&gt;" style="rounded=1;whiteSpace=wrap;html=1;fillColor=#f5f5f5;fontColor=#333333;strokeColor=#666666;" vertex="1" parent="1">
          <mxGeometry x="140" y="160" width="70" height="40" as="geometry" />
        </mxCell>
        <mxCell id="N5b4VE_54doguNeQN6cZ-23" style="edgeStyle=orthogonalEdgeStyle;rounded=0;orthogonalLoop=1;jettySize=auto;html=1;exitX=0.5;exitY=1;exitDx=0;exitDy=0;fillColor=#f5f5f5;gradientColor=#b3b3b3;strokeColor=#666666;dashed=1;" edge="1" parent="1" source="N5b4VE_54doguNeQN6cZ-22" target="N5b4VE_54doguNeQN6cZ-21">
          <mxGeometry relative="1" as="geometry" />
        </mxCell>
        <mxCell id="N5b4VE_54doguNeQN6cZ-22" value="&lt;div&gt;DB Obj&lt;/div&gt;&lt;div&gt;seq id&lt;/div&gt;" style="rounded=1;whiteSpace=wrap;html=1;fillColor=#f5f5f5;fontColor=#333333;strokeColor=#666666;" vertex="1" parent="1">
          <mxGeometry x="140" y="100" width="70" height="40" as="geometry" />
        </mxCell>
        <mxCell id="N5b4VE_54doguNeQN6cZ-25" style="edgeStyle=orthogonalEdgeStyle;rounded=0;orthogonalLoop=1;jettySize=auto;html=1;exitX=0.5;exitY=1;exitDx=0;exitDy=0;entryX=0.5;entryY=0;entryDx=0;entryDy=0;dashed=1;fillColor=#f5f5f5;gradientColor=#b3b3b3;strokeColor=#666666;" edge="1" parent="1" source="N5b4VE_54doguNeQN6cZ-24" target="N5b4VE_54doguNeQN6cZ-22">
          <mxGeometry relative="1" as="geometry" />
        </mxCell>
        <mxCell id="N5b4VE_54doguNeQN6cZ-24" value="&lt;div&gt;DB Obj&lt;br&gt;&lt;/div&gt;" style="rounded=1;whiteSpace=wrap;html=1;fillColor=#f5f5f5;fontColor=#333333;strokeColor=#666666;" vertex="1" parent="1">
          <mxGeometry x="140" y="40" width="70" height="40" as="geometry" />
        </mxCell>
        <mxCell id="N5b4VE_54doguNeQN6cZ-31" style="edgeStyle=orthogonalEdgeStyle;rounded=0;orthogonalLoop=1;jettySize=auto;html=1;exitX=0.5;exitY=1;exitDx=0;exitDy=0;fillColor=#f5f5f5;gradientColor=#b3b3b3;strokeColor=#666666;dashed=1;entryX=0;entryY=0.5;entryDx=0;entryDy=0;" edge="1" parent="1" target="N5b4VE_54doguNeQN6cZ-34">
          <mxGeometry relative="1" as="geometry">
            <mxPoint x="75" y="380" as="sourcePoint" />
            <mxPoint x="75" y="400" as="targetPoint" />
            <Array as="points">
              <mxPoint x="76" y="380" />
              <mxPoint x="76" y="556" />
              <mxPoint x="40" y="556" />
              <mxPoint x="40" y="750" />
            </Array>
          </mxGeometry>
        </mxCell>
        <mxCell id="N5b4VE_54doguNeQN6cZ-42" style="edgeStyle=orthogonalEdgeStyle;rounded=0;orthogonalLoop=1;jettySize=auto;html=1;exitX=1;exitY=0.5;exitDx=0;exitDy=0;fillColor=#f5f5f5;gradientColor=#b3b3b3;strokeColor=#666666;dashed=1;" edge="1" parent="1" target="N5b4VE_54doguNeQN6cZ-35">
          <mxGeometry relative="1" as="geometry">
            <mxPoint x="110" y="360" as="sourcePoint" />
            <Array as="points">
              <mxPoint x="110" y="361" />
              <mxPoint x="330" y="361" />
              <mxPoint x="330" y="670" />
              <mxPoint x="420" y="670" />
            </Array>
          </mxGeometry>
        </mxCell>
        <mxCell id="N5b4VE_54doguNeQN6cZ-63" style="edgeStyle=orthogonalEdgeStyle;rounded=0;orthogonalLoop=1;jettySize=auto;html=1;exitX=0.5;exitY=1;exitDx=0;exitDy=0;entryX=0.5;entryY=0;entryDx=0;entryDy=0;dashed=1;fillColor=#f5f5f5;gradientColor=#b3b3b3;strokeColor=#666666;" edge="1" parent="1" source="N5b4VE_54doguNeQN6cZ-27" target="N5b4VE_54doguNeQN6cZ-30">
          <mxGeometry relative="1" as="geometry" />
        </mxCell>
        <mxCell id="N5b4VE_54doguNeQN6cZ-27" value="&lt;div&gt;Sandbox&lt;/div&gt;&lt;div&gt;Link&lt;br&gt;&lt;/div&gt;" style="rounded=1;whiteSpace=wrap;html=1;fillColor=#f5f5f5;fontColor=#333333;strokeColor=#666666;" vertex="1" parent="1">
          <mxGeometry x="40" y="280" width="70" height="40" as="geometry" />
        </mxCell>
        <mxCell id="N5b4VE_54doguNeQN6cZ-64" style="edgeStyle=orthogonalEdgeStyle;rounded=0;orthogonalLoop=1;jettySize=auto;html=1;exitX=0.5;exitY=1;exitDx=0;exitDy=0;entryX=0.5;entryY=0;entryDx=0;entryDy=0;dashed=1;fillColor=#f5f5f5;gradientColor=#b3b3b3;strokeColor=#666666;" edge="1" parent="1" source="N5b4VE_54doguNeQN6cZ-28" target="CbGXBsFZmbm_EGALDHrA-2">
          <mxGeometry relative="1" as="geometry" />
        </mxCell>
        <mxCell id="N5b4VE_54doguNeQN6cZ-28" value="&lt;div&gt;Sandbox&lt;/div&gt;&lt;div&gt;Value&lt;br&gt;&lt;/div&gt;" style="rounded=1;whiteSpace=wrap;html=1;fillColor=#f5f5f5;fontColor=#333333;strokeColor=#666666;" vertex="1" parent="1">
          <mxGeometry x="385" y="395" width="70" height="40" as="geometry" />
        </mxCell>
        <mxCell id="N5b4VE_54doguNeQN6cZ-30" value="&lt;div&gt;Sandbox&lt;/div&gt;&lt;div&gt;Link Named&lt;br&gt;&lt;/div&gt;" style="rounded=1;whiteSpace=wrap;html=1;fillColor=#f5f5f5;fontColor=#333333;strokeColor=#666666;" vertex="1" parent="1">
          <mxGeometry x="40" y="340" width="70" height="40" as="geometry" />
        </mxCell>
        <mxCell id="N5b4VE_54doguNeQN6cZ-34" value="Triple" style="shape=hexagon;perimeter=hexagonPerimeter2;whiteSpace=wrap;html=1;fixedSize=1;fillColor=#dae8fc;gradientColor=#7ea6e0;strokeColor=#6c8ebf;" vertex="1" parent="1">
          <mxGeometry x="70" y="730" width="70" height="40" as="geometry" />
        </mxCell>
        <mxCell id="N5b4VE_54doguNeQN6cZ-35" value="&lt;div&gt;Formula&lt;/div&gt;&lt;div&gt;Link&lt;br&gt;&lt;/div&gt;" style="shape=hexagon;perimeter=hexagonPerimeter2;whiteSpace=wrap;html=1;fixedSize=1;" vertex="1" parent="1">
          <mxGeometry x="385" y="690" width="70" height="40" as="geometry" />
        </mxCell>
        <mxCell id="N5b4VE_54doguNeQN6cZ-66" style="edgeStyle=orthogonalEdgeStyle;rounded=0;orthogonalLoop=1;jettySize=auto;html=1;exitX=0.5;exitY=1;exitDx=0;exitDy=0;" edge="1" parent="1" source="N5b4VE_54doguNeQN6cZ-36" target="N5b4VE_54doguNeQN6cZ-65">
          <mxGeometry relative="1" as="geometry" />
        </mxCell>
        <mxCell id="N5b4VE_54doguNeQN6cZ-36" value="Term" style="rhombus;whiteSpace=wrap;html=1;" vertex="1" parent="1">
          <mxGeometry x="80" y="870" width="120" height="60" as="geometry" />
        </mxCell>
        <mxCell id="N5b4VE_54doguNeQN6cZ-58" style="edgeStyle=orthogonalEdgeStyle;rounded=0;orthogonalLoop=1;jettySize=auto;html=1;exitX=0.75;exitY=1;exitDx=0;exitDy=0;entryX=0.25;entryY=0;entryDx=0;entryDy=0;" edge="1" parent="1" source="CbGXBsFZmbm_EGALDHrA-2" target="CbGXBsFZmbm_EGALDHrA-3">
          <mxGeometry relative="1" as="geometry">
            <Array as="points">
              <mxPoint x="450" y="670" />
              <mxPoint x="520" y="670" />
              <mxPoint x="520" y="570" />
              <mxPoint x="670" y="570" />
            </Array>
          </mxGeometry>
        </mxCell>
        <mxCell id="CbGXBsFZmbm_EGALDHrA-2" value="Value" style="rounded=1;whiteSpace=wrap;html=1;fillColor=#d5e8d4;strokeColor=#82b366;" parent="1" vertex="1">
          <mxGeometry x="360" y="590" width="120" height="60" as="geometry" />
        </mxCell>
        <mxCell id="N5b4VE_54doguNeQN6cZ-51" value="Result" style="rounded=1;whiteSpace=wrap;html=1;fillColor=#dae8fc;gradientColor=#7ea6e0;strokeColor=#6c8ebf;" vertex="1" parent="1">
          <mxGeometry x="645" y="680" width="110" height="50" as="geometry" />
        </mxCell>
        <mxCell id="N5b4VE_54doguNeQN6cZ-56" style="edgeStyle=orthogonalEdgeStyle;rounded=0;orthogonalLoop=1;jettySize=auto;html=1;exitX=0;exitY=0.5;exitDx=0;exitDy=0;entryX=0.5;entryY=0;entryDx=0;entryDy=0;" edge="1" parent="1" source="N5b4VE_54doguNeQN6cZ-52" target="CbGXBsFZmbm_EGALDHrA-1">
          <mxGeometry relative="1" as="geometry" />
        </mxCell>
        <mxCell id="N5b4VE_54doguNeQN6cZ-52" value="Reference" style="rounded=1;whiteSpace=wrap;html=1;fillColor=#dae8fc;gradientColor=#7ea6e0;strokeColor=#6c8ebf;" vertex="1" parent="1">
          <mxGeometry x="510" y="440" width="70" height="40" as="geometry" />
        </mxCell>
        <mxCell id="N5b4VE_54doguNeQN6cZ-54" style="edgeStyle=orthogonalEdgeStyle;rounded=0;orthogonalLoop=1;jettySize=auto;html=1;exitX=0.16;exitY=0.55;exitDx=0;exitDy=0;exitPerimeter=0;entryX=1;entryY=0.5;entryDx=0;entryDy=0;" edge="1" parent="1" source="N5b4VE_54doguNeQN6cZ-53" target="N5b4VE_54doguNeQN6cZ-11">
          <mxGeometry relative="1" as="geometry" />
        </mxCell>
        <mxCell id="N5b4VE_54doguNeQN6cZ-55" style="edgeStyle=orthogonalEdgeStyle;rounded=0;orthogonalLoop=1;jettySize=auto;html=1;exitX=0.16;exitY=0.55;exitDx=0;exitDy=0;exitPerimeter=0;entryX=1;entryY=0.5;entryDx=0;entryDy=0;" edge="1" parent="1" source="N5b4VE_54doguNeQN6cZ-53" target="N5b4VE_54doguNeQN6cZ-52">
          <mxGeometry relative="1" as="geometry" />
        </mxCell>
        <mxCell id="N5b4VE_54doguNeQN6cZ-53" value="Internet" style="ellipse;shape=cloud;whiteSpace=wrap;html=1;" vertex="1" parent="1">
          <mxGeometry x="660" y="435" width="120" height="80" as="geometry" />
        </mxCell>
        <mxCell id="N5b4VE_54doguNeQN6cZ-61" style="edgeStyle=orthogonalEdgeStyle;rounded=0;orthogonalLoop=1;jettySize=auto;html=1;exitX=0.5;exitY=1;exitDx=0;exitDy=0;entryX=0.707;entryY=0.067;entryDx=0;entryDy=0;entryPerimeter=0;" edge="1" parent="1" source="N5b4VE_54doguNeQN6cZ-60" target="N5b4VE_54doguNeQN6cZ-12">
          <mxGeometry relative="1" as="geometry" />
        </mxCell>
        <mxCell id="N5b4VE_54doguNeQN6cZ-60" value="&lt;div&gt;Component&lt;br&gt;&lt;/div&gt;&lt;div&gt;Link&lt;br&gt;&lt;/div&gt;" style="shape=hexagon;perimeter=hexagonPerimeter2;whiteSpace=wrap;html=1;fixedSize=1;" vertex="1" parent="1">
          <mxGeometry x="510" y="1010" width="100" height="50" as="geometry" />
        </mxCell>
        <mxCell id="N5b4VE_54doguNeQN6cZ-16" value="&lt;div&gt;Sandbox&lt;/div&gt;&lt;div&gt;Typed&lt;/div&gt;" style="rounded=1;whiteSpace=wrap;html=1;fillColor=#f5f5f5;fontColor=#333333;strokeColor=#666666;" vertex="1" parent="1">
          <mxGeometry x="140" y="340" width="70" height="40" as="geometry" />
        </mxCell>
        <mxCell id="N5b4VE_54doguNeQN6cZ-65" value="&lt;div&gt;View&lt;br&gt;&lt;/div&gt;&lt;div&gt;Link&lt;br&gt;&lt;/div&gt;" style="shape=hexagon;perimeter=hexagonPerimeter2;whiteSpace=wrap;html=1;fixedSize=1;" vertex="1" parent="1">
          <mxGeometry x="180" y="1010" width="100" height="50" as="geometry" />
        </mxCell>
        <mxCell id="N5b4VE_54doguNeQN6cZ-67" style="edgeStyle=orthogonalEdgeStyle;rounded=0;orthogonalLoop=1;jettySize=auto;html=1;exitX=0.5;exitY=1;exitDx=0;exitDy=0;entryX=0.221;entryY=0.067;entryDx=0;entryDy=0;entryPerimeter=0;" edge="1" parent="1" source="N5b4VE_54doguNeQN6cZ-65" target="N5b4VE_54doguNeQN6cZ-12">
          <mxGeometry relative="1" as="geometry" />
        </mxCell>
        <mxCell id="CbGXBsFZmbm_EGALDHrA-1" value="Word" style="rounded=1;whiteSpace=wrap;html=1;fillColor=#d5e8d4;strokeColor=#82b366;" parent="1" vertex="1">
          <mxGeometry x="80" y="590" width="120" height="60" as="geometry" />
        </mxCell>
        <mxCell id="N5b4VE_54doguNeQN6cZ-68" value="User" style="rounded=1;whiteSpace=wrap;html=1;fillColor=#dae8fc;gradientColor=#7ea6e0;strokeColor=#6c8ebf;" vertex="1" parent="1">
          <mxGeometry x="240" y="40" width="370" height="30" as="geometry" />
        </mxCell>
        <mxCell id="N5b4VE_54doguNeQN6cZ-69" value="Log" style="rounded=1;whiteSpace=wrap;html=1;" vertex="1" parent="1">
          <mxGeometry x="780" y="40" width="40" height="1090" as="geometry" />
        </mxCell>
        <mxCell id="N5b4VE_54doguNeQN6cZ-70" value="&lt;div&gt;Job&lt;/div&gt;" style="rounded=1;whiteSpace=wrap;html=1;" vertex="1" parent="1">
          <mxGeometry x="580" y="660" width="60" height="30" as="geometry" />
        </mxCell>
      </root>
    </mxGraphModel>
  </diagram>
</mxfile>
